<svg width="33" height="27" viewBox="0 0 33 27" fill="none" xmlns="http://www.w3.org/2000/svg">
<path d="M32.0833 3.854C32.0833 2.0936 30.6469 0.666504 28.875 0.666504H3.20833C1.43642 0.666504 0 2.0936 0 3.854V22.979C0 24.7394 1.43642 26.1665 3.20833 26.1665H28.875C30.6469 26.1665 32.0833 24.7394 32.0833 22.979V3.854ZM24.2229 3.854L16.0417 10.3565L7.86042 3.854H24.2229ZM27.2708 22.979H4.8125V7.5515L14.7744 15.5203C15.0566 15.7452 15.4071 15.8688 15.769 15.8709H16.3304C16.6923 15.8688 17.0428 15.7452 17.325 15.5203L27.2708 7.5515V22.979Z" fill="white"/>
</svg>
