<svg width="39" height="39" viewBox="0 0 39 39" fill="none" xmlns="http://www.w3.org/2000/svg">
<path d="M26 4.875H13C8.51269 4.875 4.875 8.51269 4.875 13V26C4.875 30.4873 8.51269 34.125 13 34.125H26C30.4873 34.125 34.125 30.4873 34.125 26V13C34.125 8.51269 30.4873 4.875 26 4.875ZM31.2812 26C31.2723 28.9131 28.9131 31.2723 26 31.2812H13C10.0869 31.2723 7.72767 28.9131 7.71875 26V13C7.72767 10.0869 10.0869 7.72767 13 7.71875H26C28.9131 7.72767 31.2723 10.0869 31.2812 13V26ZM28.8438 11.7812C28.8438 12.6787 28.1162 13.4062 27.2188 13.4062C26.3213 13.4062 25.5938 12.6787 25.5938 11.7812C25.5938 10.8838 26.3213 10.1562 27.2188 10.1562C28.1162 10.1562 28.8438 10.8838 28.8438 11.7812ZM19.5 12.1875C15.4614 12.1875 12.1875 15.4614 12.1875 19.5C12.1875 23.5386 15.4614 26.8125 19.5 26.8125C23.5386 26.8125 26.8125 23.5386 26.8125 19.5C26.8168 17.5593 26.0478 15.6968 24.6755 14.3245C23.3032 12.9522 21.4407 12.1832 19.5 12.1875ZM19.5 23.9688C17.032 23.9688 15.0312 21.968 15.0312 19.5C15.0312 17.032 17.032 15.0312 19.5 15.0312C21.968 15.0312 23.9688 17.032 23.9688 19.5C23.9688 21.968 21.968 23.9688 19.5 23.9688Z" fill="white"/>
</svg>
