<svg width="31" height="31" viewBox="0 0 31 31" fill="none" xmlns="http://www.w3.org/2000/svg">
<path d="M26.875 0.875H4.125C2.33007 0.875 0.875 2.33007 0.875 4.125V26.875C0.875 28.6699 2.33007 30.125 4.125 30.125H26.875C28.6699 30.125 30.125 28.6699 30.125 26.875V4.125C30.125 2.33007 28.6699 0.875 26.875 0.875ZM9.8125 24.4375C9.8125 24.8862 9.44873 25.25 9 25.25H6.5625C6.11377 25.25 5.75 24.8862 5.75 24.4375V13.0625C5.75 12.6138 6.11377 12.25 6.5625 12.25H9C9.44873 12.25 9.8125 12.6138 9.8125 13.0625V24.4375ZM7.78125 10.625C6.43506 10.625 5.34375 9.53369 5.34375 8.1875C5.34375 6.84131 6.43506 5.75 7.78125 5.75C9.12744 5.75 10.2188 6.84131 10.2188 8.1875C10.2188 9.53369 9.12744 10.625 7.78125 10.625ZM25.25 24.4375C25.25 24.8862 24.8862 25.25 24.4375 25.25H22C21.5513 25.25 21.1875 24.8862 21.1875 24.4375V18.3438C21.1875 16.9976 20.0962 15.9062 18.75 15.9062C17.4038 15.9062 16.3125 16.9976 16.3125 18.3438V24.4375C16.3125 24.8862 15.9487 25.25 15.5 25.25H13.0625C12.6138 25.25 12.25 24.8862 12.25 24.4375V13.0625C12.25 12.6138 12.6138 12.25 13.0625 12.25H15.5C15.9487 12.25 16.3125 12.6138 16.3125 13.0625V14.0375C17.3009 12.5334 19.0377 11.6963 20.83 11.86C23.3936 12.1761 25.3027 14.38 25.25 16.9625V24.4375Z" fill="white"/>
</svg>
