<svg width="884" height="1835" viewBox="0 0 884 1835" fill="none" xmlns="http://www.w3.org/2000/svg">
<path d="M593.232 1001.28C589.051 1001.28 584.784 1000.64 580.432 999.36C576.08 998.08 573.819 997.44 573.648 997.44C573.136 997.44 572.539 997.696 571.856 998.208C571.173 998.72 570.832 999.317 570.832 1000H567.888V979.776H570.704C571.643 984.811 574.459 988.949 579.152 992.192C583.845 995.349 588.283 996.928 592.464 996.928C596.731 996.928 600.144 995.819 602.704 993.6C605.349 991.296 606.672 988.309 606.672 984.64C606.672 983.36 606.245 982.123 605.392 980.928C604.624 979.648 603.344 978.368 601.552 977.088C599.845 975.723 598.309 974.613 596.944 973.76C595.579 972.821 593.573 971.584 590.928 970.048C588.368 968.512 586.533 967.403 585.424 966.72C573.819 959.552 568.016 951.872 568.016 943.68C568.016 938.645 570.32 934.08 574.928 929.984C579.536 925.888 584.699 923.84 590.416 923.84C592.976 923.84 596.091 924.48 599.76 925.76C603.429 927.04 605.477 927.68 605.904 927.68C606.928 927.68 607.44 926.827 607.44 925.12H610.384L611.664 944.448H608.848C608.336 940.949 606.032 937.365 601.936 933.696C597.84 930.027 594.043 928.192 590.544 928.192C586.704 928.192 583.803 929.429 581.84 931.904C579.877 934.293 578.896 936.853 578.896 939.584C578.896 940.693 579.28 941.803 580.048 942.912C580.816 943.936 582.053 945.088 583.76 946.368C585.467 947.648 586.96 948.715 588.24 949.568C589.52 950.336 591.483 951.488 594.128 953.024C596.773 954.56 598.608 955.627 599.632 956.224C605.52 959.808 610.128 963.52 613.456 967.36C616.784 971.2 618.448 975.765 618.448 981.056C618.448 987.371 615.888 992.32 610.768 995.904C605.648 999.488 599.803 1001.28 593.232 1001.28ZM623.292 1000V997.312C627.9 997.312 630.588 996.459 631.356 994.752V928.32C626.748 927.979 624.06 927.808 623.292 927.808V924.864C624.913 924.864 628.839 923.968 635.068 922.176C641.297 920.299 645.393 919.36 647.356 919.36V994.752C648.124 996.459 650.812 997.312 655.42 997.312V1000H623.292ZM664.764 1000V997.312C666.812 997.312 668.433 997.184 669.628 996.928L648.252 967.488L670.908 947.136C669.628 946.624 667.537 946.368 664.636 946.368V943.68H684.732V946.368C681.404 946.368 679.1 946.923 677.82 948.032L662.332 961.856L686.14 994.88C687.335 996.501 690.023 997.312 694.204 997.312V1000H664.764ZM694.947 1000V997.312C699.555 997.312 702.243 996.459 703.011 994.752V951.36C698.574 951.019 695.886 950.848 694.947 950.848V947.904C696.568 947.904 700.494 947.008 706.723 945.216C712.952 943.339 717.048 942.4 719.011 942.4V994.752C719.779 996.459 722.467 997.312 727.075 997.312V1000H694.947ZM710.691 934.208C708.643 934.208 706.552 933.483 704.419 932.032C702.371 930.496 701.347 928.704 701.347 926.656C701.347 924.864 702.286 923.2 704.163 921.664C706.126 920.128 708.174 919.36 710.307 919.36C712.355 919.36 714.403 920.128 716.451 921.664C718.584 923.115 719.651 924.907 719.651 927.04C719.651 928.832 718.67 930.496 716.707 932.032C714.83 933.483 712.824 934.208 710.691 934.208ZM730.667 1000V997.312C735.275 997.312 737.963 996.459 738.731 994.752V928.32C734.123 927.979 731.435 927.808 730.667 927.808V924.864C732.288 924.864 736.214 923.968 742.443 922.176C748.672 920.299 752.768 919.36 754.731 919.36V994.752C755.499 996.459 758.187 997.312 762.795 997.312V1000H730.667ZM766.417 1000V997.312C771.025 997.312 773.713 996.459 774.481 994.752V928.32C769.873 927.979 767.185 927.808 766.417 927.808V924.864C768.038 924.864 771.964 923.968 778.193 922.176C784.422 920.299 788.518 919.36 790.481 919.36V994.752C791.249 996.459 793.937 997.312 798.545 997.312V1000H766.417Z" fill="black"/>
<path d="M637.232 1093.28C633.051 1093.28 628.784 1092.64 624.432 1091.36C620.08 1090.08 617.819 1089.44 617.648 1089.44C617.136 1089.44 616.539 1089.7 615.856 1090.21C615.173 1090.72 614.832 1091.32 614.832 1092H611.888V1071.78H614.704C615.643 1076.81 618.459 1080.95 623.152 1084.19C627.845 1087.35 632.283 1088.93 636.464 1088.93C640.731 1088.93 644.144 1087.82 646.704 1085.6C649.349 1083.3 650.672 1080.31 650.672 1076.64C650.672 1075.36 650.245 1074.12 649.392 1072.93C648.624 1071.65 647.344 1070.37 645.552 1069.09C643.845 1067.72 642.309 1066.61 640.944 1065.76C639.579 1064.82 637.573 1063.58 634.928 1062.05C632.368 1060.51 630.533 1059.4 629.424 1058.72C617.819 1051.55 612.016 1043.87 612.016 1035.68C612.016 1030.65 614.32 1026.08 618.928 1021.98C623.536 1017.89 628.699 1015.84 634.416 1015.84C636.976 1015.84 640.091 1016.48 643.76 1017.76C647.429 1019.04 649.477 1019.68 649.904 1019.68C650.928 1019.68 651.44 1018.83 651.44 1017.12H654.384L655.664 1036.45H652.848C652.336 1032.95 650.032 1029.37 645.936 1025.7C641.84 1022.03 638.043 1020.19 634.544 1020.19C630.704 1020.19 627.803 1021.43 625.84 1023.9C623.877 1026.29 622.896 1028.85 622.896 1031.58C622.896 1032.69 623.28 1033.8 624.048 1034.91C624.816 1035.94 626.053 1037.09 627.76 1038.37C629.467 1039.65 630.96 1040.71 632.24 1041.57C633.52 1042.34 635.483 1043.49 638.128 1045.02C640.773 1046.56 642.608 1047.63 643.632 1048.22C649.52 1051.81 654.128 1055.52 657.456 1059.36C660.784 1063.2 662.448 1067.77 662.448 1073.06C662.448 1079.37 659.888 1084.32 654.768 1087.9C649.648 1091.49 643.803 1093.28 637.232 1093.28ZM686.733 1061.15C686.904 1068.58 688.568 1074.98 691.725 1080.35C694.968 1085.73 699.064 1088.42 704.013 1088.42C711.437 1088.42 717.41 1085.6 721.933 1079.97L725.005 1081.5C722.53 1085.6 719.288 1088.59 715.277 1090.46C711.352 1092.34 706.146 1093.28 699.661 1093.28C696.333 1093.28 693.09 1092.81 689.933 1091.87C686.776 1090.85 683.618 1089.23 680.461 1087.01C677.389 1084.7 674.872 1081.33 672.909 1076.9C671.032 1072.46 670.093 1067.17 670.093 1061.02C670.093 1053.6 672.696 1047.33 677.901 1042.21C683.192 1037 690.018 1034.4 698.381 1034.4C707.512 1034.4 714.594 1037 719.629 1042.21C724.664 1047.33 727.181 1053.64 727.181 1061.15H686.733ZM686.861 1057.18H710.157C709.645 1051.13 708.578 1046.47 706.957 1043.23C705.421 1039.9 702.904 1038.24 699.405 1038.24C696.333 1038.24 693.56 1039.82 691.085 1042.98C688.696 1046.05 687.288 1050.78 686.861 1057.18ZM756.874 1017.12V1035.68H767.882V1039.52H756.874V1080.22C756.874 1082.87 757.343 1084.92 758.282 1086.37C759.221 1087.73 760.97 1088.42 763.53 1088.42C765.066 1088.42 766.602 1087.69 768.138 1086.24C769.759 1084.7 770.869 1082.61 771.466 1079.97L774.538 1081.5C772.746 1089.35 767.626 1093.28 759.178 1093.28C752.522 1093.28 747.658 1091.79 744.586 1088.8C741.599 1085.73 740.106 1080.74 740.106 1073.82V1039.52H731.146V1035.68C736.181 1035.68 740.575 1033.8 744.33 1030.05C748.085 1026.21 749.962 1021.9 749.962 1017.12H756.874Z" fill="white"/>
<path d="M309.28 1355.77C309.28 1359.95 308.64 1364.22 307.36 1368.57C306.08 1372.92 305.44 1375.18 305.44 1375.35C305.44 1375.86 305.696 1376.46 306.208 1377.14C306.72 1377.83 307.317 1378.17 308 1378.17L308 1381.11L287.776 1381.11L287.776 1378.3C292.811 1377.36 296.949 1374.54 300.192 1369.85C303.349 1365.15 304.928 1360.72 304.928 1356.54C304.928 1352.27 303.819 1348.86 301.6 1346.3C299.296 1343.65 296.309 1342.33 292.64 1342.33C291.36 1342.33 290.123 1342.75 288.928 1343.61C287.648 1344.38 286.368 1345.66 285.088 1347.45C283.723 1349.15 282.613 1350.69 281.76 1352.06C280.821 1353.42 279.584 1355.43 278.048 1358.07C276.512 1360.63 275.403 1362.47 274.72 1363.58C267.552 1375.18 259.872 1380.98 251.68 1380.98C246.645 1380.98 242.08 1378.68 237.984 1374.07C233.888 1369.46 231.84 1364.3 231.84 1358.58C231.84 1356.02 232.48 1352.91 233.76 1349.24C235.04 1345.57 235.68 1343.52 235.68 1343.1C235.68 1342.07 234.827 1341.56 233.12 1341.56L233.12 1338.62L252.448 1337.34L252.448 1340.15C248.949 1340.66 245.365 1342.97 241.696 1347.06C238.027 1351.16 236.192 1354.96 236.192 1358.46C236.192 1362.3 237.429 1365.2 239.904 1367.16C242.293 1369.12 244.853 1370.1 247.584 1370.1C248.693 1370.1 249.803 1369.72 250.912 1368.95C251.936 1368.18 253.088 1366.95 254.368 1365.24C255.648 1363.53 256.715 1362.04 257.568 1360.76C258.336 1359.48 259.488 1357.52 261.024 1354.87C262.56 1352.23 263.627 1350.39 264.224 1349.37C267.808 1343.48 271.52 1338.87 275.36 1335.54C279.2 1332.22 283.765 1330.55 289.056 1330.55C295.371 1330.55 300.32 1333.11 303.904 1338.23C307.488 1343.35 309.28 1349.2 309.28 1355.77ZM308 1322.27L305.312 1322.27C305.312 1317.66 304.459 1314.97 302.752 1314.2L238.368 1314.2C236.661 1314.97 235.808 1317.66 235.808 1322.27L233.12 1322.27L233.12 1269.4L245.536 1269.4L245.536 1272.09C240.928 1272.09 238.24 1272.94 237.472 1274.65L237.472 1297.95L266.912 1297.95L266.912 1283.23C266.144 1281.52 263.456 1280.67 258.848 1280.67L258.848 1277.98L279.328 1277.98L279.328 1280.67C274.72 1280.67 272.032 1281.52 271.264 1283.23L271.264 1297.95L303.648 1297.95L303.648 1271.96C302.709 1269.83 300.021 1267.91 295.584 1266.2L295.584 1263.64L308 1266.71L308 1322.27ZM308 1257.89L305.312 1257.89C305.312 1253.28 304.459 1250.6 302.752 1249.83L238.368 1249.83C236.661 1250.6 235.808 1253.28 235.808 1257.89L233.12 1257.89L233.12 1226.4C233.12 1215.82 235.04 1207.8 238.88 1202.34C242.72 1196.88 247.115 1194.15 252.064 1194.15C256.757 1194.15 260.896 1195.56 264.48 1198.37C267.979 1201.19 270.539 1205.37 272.16 1210.92L302.624 1193.89C304.416 1193.04 305.312 1190.22 305.312 1185.44L308 1185.44L308 1190.95C308 1197.69 307.616 1202.68 306.848 1205.92C306.08 1209.08 304.245 1211.47 301.344 1213.09L273.952 1228.58L273.952 1233.57L302.752 1233.57C304.459 1232.8 305.312 1230.12 305.312 1225.51L308 1225.51L308 1257.89ZM237.472 1233.57L269.6 1233.57L269.6 1229.35C269.6 1223.55 268.32 1219.11 265.76 1216.04C263.115 1212.96 258.592 1211.43 252.192 1211.43C247.243 1211.43 243.573 1213.18 241.184 1216.68C238.709 1220.09 237.472 1224.83 237.472 1230.88L237.472 1233.57ZM238.112 1127.44C236.576 1128.29 235.808 1130.94 235.808 1135.37L233.12 1135.37L233.12 1114.38L235.808 1114.38C235.808 1119.08 236.704 1121.76 238.496 1122.45L308 1147.28L308 1157.65L238.496 1182.73C236.704 1183.33 235.808 1186.06 235.808 1190.93L233.12 1190.93L233.12 1158.41L235.808 1158.41C235.808 1162.34 236.32 1164.81 237.344 1165.84L290.976 1146.25L238.112 1127.44ZM308 1111.64L305.312 1111.64C305.312 1107.03 304.459 1104.35 302.752 1103.58L238.368 1103.58C236.661 1104.35 235.808 1107.03 235.808 1111.64L233.12 1111.64L233.12 1079.26L235.808 1079.26C235.808 1083.87 236.661 1086.55 238.368 1087.32L302.752 1087.32C304.459 1086.55 305.312 1083.87 305.312 1079.26L308 1079.26L308 1111.64ZM236.192 1030.82C236.192 1037.99 239.136 1043.54 245.024 1047.46C250.912 1051.3 258.848 1053.22 268.832 1053.22C280.437 1053.22 289.355 1051.13 295.584 1046.95C301.813 1042.77 304.928 1037.22 304.928 1030.31C304.928 1026.13 303.52 1022.33 300.704 1018.92C297.803 1015.42 294.603 1013.03 291.104 1011.75L292.64 1006.5C297.333 1008.47 301.301 1011.58 304.544 1015.85C307.701 1020.03 309.28 1025.7 309.28 1032.87C309.28 1044.31 305.568 1053.52 298.144 1060.52C290.72 1067.52 281.888 1071.02 271.648 1071.02C259.787 1071.02 250.187 1067.01 242.848 1058.98C235.509 1050.96 231.84 1041.62 231.84 1030.95C231.84 1028.48 232.48 1025.41 233.76 1021.74C235.04 1018.07 235.68 1015.98 235.68 1015.46C235.68 1014.44 234.827 1013.93 233.12 1013.93L233.12 1010.98L251.168 1009.96L251.168 1012.78C247.669 1013.29 244.299 1015.51 241.056 1019.43C237.813 1023.36 236.192 1027.16 236.192 1030.82ZM308 999.142L305.312 999.142C305.312 994.534 304.459 991.846 302.752 991.078L238.368 991.078C236.661 991.846 235.808 994.534 235.808 999.142L233.12 999.142L233.12 946.278L245.536 946.278L245.536 948.966C240.928 948.966 238.24 949.819 237.472 951.526L237.472 974.822L266.912 974.822L266.912 960.102C266.144 958.395 263.456 957.542 258.848 957.542L258.848 954.854L279.328 954.854L279.328 957.542C274.72 957.542 272.032 958.395 271.264 960.102L271.264 974.822L303.648 974.822L303.648 948.838C302.709 946.705 300.021 944.785 295.584 943.078L295.584 940.518L308 943.59L308 999.142ZM309.28 908.143C309.28 912.324 308.64 916.591 307.36 920.943C306.08 925.295 305.44 927.556 305.44 927.727C305.44 928.239 305.696 928.836 306.208 929.519C306.72 930.202 307.317 930.543 308 930.543L308 933.487L287.776 933.487L287.776 930.671C292.811 929.732 296.949 926.916 300.192 922.223C303.349 917.53 304.928 913.092 304.928 908.911C304.928 904.644 303.819 901.231 301.6 898.671C299.296 896.026 296.309 894.703 292.64 894.703C291.36 894.703 290.123 895.13 288.928 895.983C287.648 896.751 286.368 898.031 285.088 899.823C283.723 901.53 282.613 903.066 281.76 904.431C280.821 905.796 279.584 907.802 278.048 910.447C276.512 913.007 275.403 914.842 274.72 915.951C267.552 927.556 259.872 933.359 251.68 933.359C246.645 933.359 242.08 931.055 237.984 926.447C233.888 921.839 231.84 916.676 231.84 910.959C231.84 908.399 232.48 905.284 233.76 901.615C235.04 897.946 235.68 895.898 235.68 895.471C235.68 894.447 234.827 893.935 233.12 893.935L233.12 890.991L252.448 889.711L252.448 892.527C248.949 893.039 245.365 895.343 241.696 899.439C238.027 903.535 236.192 907.332 236.192 910.831C236.192 914.671 237.429 917.572 239.904 919.535C242.293 921.498 244.853 922.479 247.584 922.479C248.693 922.479 249.803 922.095 250.912 921.327C251.936 920.559 253.088 919.322 254.368 917.615C255.648 915.908 256.715 914.415 257.568 913.135C258.336 911.855 259.488 909.892 261.024 907.247C262.56 904.602 263.627 902.767 264.224 901.743C267.808 895.855 271.52 891.247 275.36 887.919C279.2 884.591 283.765 882.927 289.056 882.927C295.371 882.927 300.32 885.487 303.904 890.607C307.488 895.727 309.28 901.572 309.28 908.143Z" fill="white"/>
<path d="M483 980.5L483.097 983.684M483.097 983.684L485 1046.07C484.445 1302.75 879.746 1317.1 880 1046.07V668M483.097 983.684C483.099 984.857 483.095 986.034 483.087 987.214M483.097 983.684C482.582 630.216 7.95849 633.206 5.57101 1008.93L4.42847 1834.52" stroke="#F9FFFD" stroke-width="8"/>
</svg>
