<svg width="35" height="35" viewBox="0 0 35 35" fill="none" xmlns="http://www.w3.org/2000/svg">
<path d="M32.0395 9.42651C31.287 10.4304 30.3773 11.306 29.3457 12.0197C29.3457 12.2819 29.3457 12.5441 29.3457 12.8209C29.3539 17.583 27.4518 22.1492 24.0656 25.4959C20.6794 28.8426 16.0925 30.6898 11.3332 30.6234C8.58171 30.6326 5.86546 30.0043 3.39722 28.7878C3.26413 28.7297 3.17829 28.598 3.1788 28.4528V28.2925C3.1788 28.0833 3.3483 27.9137 3.55739 27.9137C6.26204 27.8246 8.87019 26.8868 11.0128 25.2332C8.56476 25.1839 6.36212 23.7336 5.34845 21.5037C5.29725 21.3819 5.31319 21.2422 5.39052 21.135C5.46784 21.0279 5.59538 20.9689 5.72704 20.9792C6.47107 21.054 7.22253 20.9847 7.94038 20.7752C5.23791 20.2143 3.2073 17.9707 2.91669 15.2247C2.90636 15.093 2.96539 14.9654 3.07246 14.888C3.17953 14.8107 3.31916 14.7947 3.4409 14.8459C4.16613 15.1659 4.94901 15.3345 5.74161 15.3413C3.3736 13.787 2.35078 10.8308 3.2516 8.1445C3.34459 7.88347 3.56799 7.69064 3.83971 7.63686C4.11142 7.58309 4.39138 7.67631 4.57669 7.88227C7.77217 11.2832 12.1628 13.3098 16.8228 13.5348C16.7035 13.0585 16.6448 12.569 16.6481 12.0779C16.6917 9.50318 18.2848 7.20953 20.6816 6.27079C23.0784 5.33205 25.8045 5.93402 27.5837 7.79486C28.7965 7.56382 29.969 7.15644 31.0639 6.58569C31.1441 6.53562 31.2458 6.53562 31.326 6.58569C31.3761 6.66593 31.3761 6.76768 31.326 6.84792C30.7957 8.06234 29.8998 9.08091 28.7632 9.76158C29.7585 9.64617 30.7363 9.41139 31.6755 9.0623C31.7546 9.00847 31.8585 9.00847 31.9376 9.0623C32.0038 9.09262 32.0534 9.15057 32.073 9.22075C32.0927 9.29093 32.0804 9.3662 32.0395 9.42651Z" fill="white"/>
</svg>
