<svg width="36" height="35" viewBox="0 0 36 35" fill="none" xmlns="http://www.w3.org/2000/svg">
<path d="M17.9149 0.00111966C8.01802 0.00111966 0 8.02586 0 17.916C0 25.8355 5.13261 32.5479 12.2459 34.9161C13.145 35.0851 13.4697 34.5309 13.4697 34.0517C13.4697 33.6262 13.4597 32.5009 13.4529 31.0073C8.46701 32.0866 7.41675 28.5988 7.41675 28.5988C6.60051 26.5342 5.42261 25.9799 5.42261 25.9799C3.80131 24.8725 5.55137 24.8961 5.55137 24.8961C7.34733 25.0181 8.29234 26.7379 8.29234 26.7379C9.89012 29.4789 12.4844 28.6862 13.5112 28.2249C13.6679 27.0705 14.1348 26.2766 14.6432 25.8344C10.6661 25.3854 6.48406 23.8458 6.48406 16.9811C6.48406 15.0205 7.17826 13.4238 8.32593 12.1698C8.12775 11.7208 7.52088 9.89572 8.48381 7.42795C8.48381 7.42795 9.98306 6.94985 13.4104 9.26534C14.8447 8.86786 16.3675 8.66967 17.8891 8.6596C19.4119 8.66967 20.9335 8.86898 22.3678 9.26534C25.775 6.94985 27.2731 7.42795 27.2731 7.42795C28.2349 9.89572 27.6281 11.7197 27.4534 12.1698C28.5899 13.4238 29.2841 15.0216 29.2841 16.9811C29.2841 23.8615 25.0965 25.3786 21.1149 25.8164C21.7374 26.3528 22.3208 27.4556 22.3208 29.1296C22.3208 31.5257 22.2984 33.456 22.2984 34.0394C22.2984 34.5051 22.6119 35.065 23.5345 34.8847C30.7005 32.5412 35.8275 25.8232 35.8275 17.9149C35.8275 8.02474 27.8095 0 17.9126 0L17.9149 0.00111966Z" fill="white"/>
</svg>
